<?xml version="1.0" encoding="UTF-8"?>
<svg version="1.1" xmlns="http://www.w3.org/2000/svg" width="843" height="421">
<path d="M0 0 C0.73166382 0.00021149 1.46332764 0.00042297 2.21716309 0.00064087 C13.58058145 0.0334373 24.14560055 0.82999933 35 4.375 C36.78664063 4.95314453 36.78664063 4.95314453 38.609375 5.54296875 C53.65940956 10.90064234 64.85044729 19.16085537 72.625 33.32421875 C80.28490409 50.31963095 74.86696209 72.40396085 68.7109375 89.09375 C63.71611618 101.876814 57.11038362 111.19947325 47.41210938 120.89160156 C45.78746063 122.55016636 45.78746063 122.55016636 43.734375 125.2734375 C43.16203125 125.96695313 42.5896875 126.66046875 42 127.375 C41.34 127.375 40.68 127.375 40 127.375 C40 128.035 40 128.695 40 129.375 C38.13654528 130.89992203 36.29607192 132.27120024 34.3125 133.625 C33.72670166 134.02541504 33.14090332 134.42583008 32.53735352 134.83837891 C18.813321 143.97794982 3.57753517 149.49648987 -13 146.90625 C-30.91110042 142.98819678 -47.30656654 131.16465628 -61 119.375 C-61.85335937 118.70855469 -62.70671875 118.04210937 -63.5859375 117.35546875 C-65.79579793 115.542525 -67.59198947 113.7355112 -69.4375 111.5625 C-71.89431282 108.66055107 -71.89431282 108.66055107 -74.4296875 105.828125 C-86.89212011 92.16873558 -95.44298754 76.25699114 -95.2109375 57.4609375 C-94.62601511 48.90373964 -91.1957025 41.17717319 -86 34.375 C-85.34 34.375 -84.68 34.375 -84 34.375 C-83.74347656 33.81167969 -83.48695313 33.24835938 -83.22265625 32.66796875 C-74.98768267 17.22410455 -56.7544836 10.844259 -40.96630859 5.95214844 C-36.02935389 4.50305967 -31.04371334 3.37762908 -26 2.375 C-25.32694824 2.20726074 -24.65389648 2.03952148 -23.96044922 1.86669922 C-16.03126201 0.01473502 -8.09830869 -0.021532 0 0 Z " fill="#908FD8" transform="translate(613,137.625)"/>
<path d="M0 0 C3.29995232 2.95258892 5.80312082 5.45777975 6.375 9.9375 C6.25125 10.618125 6.1275 11.29875 6 12 C4.824375 11.87625 3.64875 11.7525 2.4375 11.625 C-1.88795952 11.6858149 -4.10947377 12.78242295 -7.19921875 15.765625 C-12.84557608 22.77151739 -17.56965775 31.06036096 -19 40 C-10.14353395 36.32780676 -5.53817641 25.72260615 -1.54296875 17.58984375 C0 15 0 15 3 14 C8.55555556 18.11111111 8.55555556 18.11111111 10 21 C10.78701497 28.0831347 8.23932512 34.35200355 6 41 C15.90715949 31.99349138 27.30546873 16.0707034 28.25 2.375 C28.1675 1.59125 28.085 0.8075 28 0 C30.125 -0.8125 30.125 -0.8125 33 -1 C38.43283582 2.86567164 38.43283582 2.86567164 40 6 C40.9487475 15.6455996 37.10657265 23.37050348 33.1875 32 C32.00028789 34.9992727 31.89839572 36.83422464 32 40 C38.95281968 31.17915573 43.84243975 21.912296 48.72900391 11.86132812 C49.67751809 9.91978635 50.642478 7.98712341 51.609375 6.0546875 C52.4442041 4.34514893 52.4442041 4.34514893 53.29589844 2.60107422 C55 0 55 0 57.04785156 -1.01123047 C59 -1 59 -1 61.625 1.125 C66.19338925 6.6551554 66.19338925 6.6551554 65.84375 10.89453125 C64.58216598 17.62702287 61.76566336 23.77391726 59 30 C58.66516602 30.76376953 58.33033203 31.52753906 57.98535156 32.31445312 C41.82629879 69.15537592 41.82629879 69.15537592 23.8984375 76.22265625 C20.31216704 77.18447272 17.60867603 76.72173521 14 76 C14 75.01 14 74.02 14 73 C15.299375 72.4121875 15.299375 72.4121875 16.625 71.8125 C28.56688868 65.39926349 33.94936237 53.11667393 39 41 C37.948125 41.928125 37.948125 41.928125 36.875 42.875 C33.73709553 45.19432069 31.87970761 46.46749111 28 47 C23.43034504 45.09742503 19.55123698 42.3052124 17 38 C16.56429687 38.48210937 16.12859375 38.96421875 15.6796875 39.4609375 C9.06930693 46.47194719 9.06930693 46.47194719 4 47 C0.19059849 45.58065126 -3.49619446 43.24021893 -6 40 C-6 39.34 -6 38.68 -6 38 C-6.66386719 38.56589844 -7.32773437 39.13179687 -8.01171875 39.71484375 C-8.89472656 40.44832031 -9.77773438 41.18179688 -10.6875 41.9375 C-11.55761719 42.66839844 -12.42773438 43.39929688 -13.32421875 44.15234375 C-16.05578983 46.03852349 -17.70935681 46.79262945 -21 47 C-25.72538894 44.53885993 -29.08737771 41.4545988 -32 37 C-33.47676918 27.15487217 -28.20441967 18.5310357 -22.921875 10.55078125 C-17.64483059 3.54689913 -9.08515147 -5.02582847 0 0 Z " fill="#6763C8" transform="translate(372,184)"/>
<path d="M0 0 C4.73971857 2.60219843 8.00115292 5.15712754 9.8125 10.3125 C10.17979112 15.57700603 8.58601046 19.60155481 5.375 23.6875 C0.98720069 28.46151147 -4.55937552 31.19492194 -11 32 C-11.02689216 33.47906892 -11.04634621 34.95827483 -11.0625 36.4375 C-11.07410156 37.26121094 -11.08570313 38.08492187 -11.09765625 38.93359375 C-11.23267348 40.99163938 -11.23267348 40.99163938 -10 42 C-3.38162883 41.73526515 1.0880353 39.05492232 5.56152344 34.36181641 C7.05247231 32.57777075 8.44636374 30.75623287 9.8125 28.875 C10.29533447 28.21701416 10.77816895 27.55902832 11.27563477 26.88110352 C14.5979806 22.12490925 16.11569454 18.12716 16.703125 12.3046875 C17.24790612 8.07546563 19.29007088 5.32717127 22.60546875 2.75390625 C26.48916579 0.27622756 29.46093691 -0.57945486 34 0 C35.010625 0.350625 36.02125 0.70125 37.0625 1.0625 C40.23859591 2.07614763 41.84810386 1.92702828 45 1 C47.125 3.125 47.125 3.125 49 6 C47.92401845 10.78811792 45.63641069 14.36650061 42.875 18.375 C42.15054688 19.43460938 41.42609375 20.49421875 40.6796875 21.5859375 C40.12539063 22.38257813 39.57109375 23.17921875 39 24 C38.01 23.67 37.02 23.34 36 23 C36 19.04 36 15.08 36 11 C32.56755927 14.43244073 32.08637136 15.24957531 32 20 C33.41801898 24.66353834 35.40652024 28.95629422 37.8125 33.1875 C39.39223942 36.9289881 39.07845965 39.11754525 38 43 C35.49258162 46.31337429 32.98511021 47.88787622 29 49 C22.8606593 49.70838547 18.28203794 47.94761384 13 45 C12.34 44.34 11.68 43.68 11 43 C11 42.01 11 41.02 11 40 C13.76276177 40.52268466 16.3260876 41.10869587 19 42 C21.33299825 42.03954234 23.66708189 42.04401732 26 42 C23.67001891 37.09477665 20.9286937 32.56089058 18 28 C17.45730469 28.69996094 16.91460937 29.39992187 16.35546875 30.12109375 C1.88346282 47.809101 1.88346282 47.809101 -7 49 C-13.20303211 48.27631292 -17.62270876 45.27052804 -22 41 C-25.16986043 36.24520936 -25.4865122 31.08601363 -24.6015625 25.47265625 C-21.86402888 15.27936931 -16.48804131 7.25132772 -8 1 C-5.13391871 -0.43304064 -3.18699217 -0.30644155 0 0 Z M-3.0234375 14.984375 C-5.95273248 17.97156118 -9 21.6383458 -9 26 C-5.87258646 25.92553777 -3.71564656 25.63837017 -1.3359375 23.515625 C2.4513311 19.15000504 5 15.93711855 5 10 C1.53194497 10 -0.53477286 12.75815136 -3.0234375 14.984375 Z " fill="#6864C8" transform="translate(259,182)"/>
<path d="M0 0 C2.8125 0.1875 2.8125 0.1875 6 1 C10.0906702 6.50851373 9.70813487 11.39074119 9 18 C7.98320272 23.66695018 6.66265925 29.26871435 5.375 34.87890625 C4.01449833 40.83110105 2.84213179 46.80577515 1.75 52.8125 C1.50588379 54.12613525 1.50588379 54.12613525 1.25683594 55.46630859 C0.20743206 61.29150272 -0.49320866 67.10343551 -1 73 C-4 74 -4 74 -7 72.8125 C-10.66688503 70.59709029 -12.46157676 68.90442295 -13.6328125 64.76171875 C-14.30139809 59.73310156 -12.92487948 54.95082544 -12 50 C-18.27 50 -24.54 50 -31 50 C-31.66 51.32 -32.32 52.64 -33 54 C-35.06333836 56.60917391 -37.35702571 59.00548983 -39.625 61.4375 C-40.21667969 62.09298828 -40.80835937 62.74847656 -41.41796875 63.42382812 C-45.35003776 67.65738406 -49.57052478 71.77722962 -55 74 C-55.99 73.67 -56.98 73.34 -58 73 C-56.87756645 69.63269934 -56.44513153 69.40997392 -53.625 67.5625 C-49.65375297 64.70118408 -46.37268851 61.45444607 -43.0625 57.875 C-42.57797363 57.3601001 -42.09344727 56.8452002 -41.59423828 56.31469727 C-39.19718965 53.67572507 -37.40660744 51.61621086 -37 48 C-38.65 47.67 -40.3 47.34 -42 47 C-42 46.01 -42 45.02 -42 44 C-41.11248047 44.08701172 -41.11248047 44.08701172 -40.20703125 44.17578125 C-39.41683594 44.22089844 -38.62664062 44.26601562 -37.8125 44.3125 C-36.64654297 44.39951172 -36.64654297 44.39951172 -35.45703125 44.48828125 C-29.8377721 43.37157633 -26.31273537 37.0835277 -22.9375 32.75 C-22.47069824 32.15300293 -22.00389648 31.55600586 -21.52294922 30.94091797 C-17.76741034 26.08923507 -14.16798331 21.13349255 -10.625 16.125 C-10.13765381 15.43631836 -9.65030762 14.74763672 -9.14819336 14.03808594 C-5.93832923 9.45398322 -2.92060657 4.77324202 0 0 Z M-6 17 C-6.39791748 17.57443848 -6.79583496 18.14887695 -7.20581055 18.74072266 C-9.03014454 21.37083728 -10.85878261 23.99793147 -12.6875 26.625 C-13.31333984 27.52863281 -13.93917969 28.43226563 -14.58398438 29.36328125 C-17.25715249 33.19808787 -19.9036304 36.97998467 -22.95703125 40.5234375 C-25.21211559 42.72205694 -25.21211559 42.72205694 -25 45 C-20.05 45 -15.1 45 -10 45 C-9.80664062 43.9378125 -9.61328125 42.875625 -9.4140625 41.78125 C-9.15156926 40.35406953 -8.88851252 38.92699262 -8.625 37.5 C-8.42245605 36.39930176 -8.42245605 36.39930176 -8.21582031 35.27636719 C-7.52011898 31.55659592 -6.76648819 27.8982179 -5.75 24.25 C-5.01787475 21.07745723 -5.09417909 19.97626871 -6 17 Z " fill="#6662C8" transform="translate(157,157)"/>
<path d="M0 0 C3.1727491 1.18978091 5.24824712 0.6937216 8.5 -0.0625 C10.625 2.0625 10.625 2.0625 12.5 4.9375 C11.87502077 10.31232137 8.16906589 14.4976175 5.05859375 18.765625 C3.48196832 20.84177718 3.48196832 20.84177718 2.5 22.9375 C1.51 22.6075 0.52 22.2775 -0.5 21.9375 C-1.86421031 19.20907939 -1.37807211 17.32796682 -1.0625 14.3125 C-0.96066406 13.30960938 -0.85882813 12.30671875 -0.75390625 11.2734375 C-0.67011719 10.50257813 -0.58632813 9.73171875 -0.5 8.9375 C-1.16 8.9375 -1.82 8.9375 -2.5 8.9375 C-4.54775185 13.16098818 -5.09337031 16.2647088 -4.5 20.9375 C-3.55050108 22.94138435 -2.54453037 24.91896907 -1.5 26.875 C1.21469572 32.03356669 2.61510773 35.15921448 1.5 40.9375 C-1.28293899 44.59507695 -3.99274474 46.93588772 -8.5 47.9375 C-13.77095125 47.85037684 -18.7311604 47.3219198 -23.5 44.9375 C-23.5 44.2775 -23.5 43.6175 -23.5 42.9375 C-24.16 42.9375 -24.82 42.9375 -25.5 42.9375 C-25.5 41.2875 -25.5 39.6375 -25.5 37.9375 C-24.324375 38.411875 -23.14875 38.88625 -21.9375 39.375 C-18.09896741 40.82556847 -14.57259809 41.51327103 -10.5 41.9375 C-12.06681165 37.97923899 -13.73728877 34.44536872 -16.0625 30.875 C-20.08922709 24.53169196 -21.64358765 18.43435235 -20.5 10.9375 C-18.57320374 6.38534787 -15.86935556 2.41346815 -11.5 -0.0625 C-7.3953047 -1.43073177 -4.03691195 -1.71568758 0 0 Z " fill="#6865C9" transform="translate(330.5,183.0625)"/>
<path d="M0 0 C0.86625 0.350625 1.7325 0.70125 2.625 1.0625 C5.50190019 2.1981185 7.07328007 1.83620569 10 1 C12.50104424 3.57683346 13.93879409 5.10231327 14.1875 8.75 C11.99060742 14.76254811 7.5666479 19.58744145 3 24 C1 22 1 22 0.8125 18.125 C0.879618 15.28539226 1.09505635 12.71483095 2 10 C-0.99989125 12.8694612 -1.91817304 14.23628171 -2.375 18.5 C-2.34933525 23.22231317 -0.39044107 26.46441698 1.80859375 30.54296875 C3.58974093 34.21621982 4 36.90961425 4 41 C2.66362199 44.75856316 1.34465523 45.78898659 -2.0625 47.875 C-7.91451179 50.05710609 -13.87661837 48.87210317 -19.5 46.5625 C-22 45 -22 45 -24 43 C-23.625 40.875 -23.625 40.875 -23 39 C-22.01 39.474375 -21.02 39.94875 -20 40.4375 C-16.00810505 42.16813748 -12.31885418 42.62115314 -8 43 C-10.39914686 38.06842034 -13.03040124 33.28114404 -15.6953125 28.48828125 C-18.65561925 22.84242675 -18.59598109 17.24952391 -18 11 C-14.16288007 3.04152903 -8.62416309 -0.43851677 0 0 Z " fill="#6763C8" transform="translate(462,182)"/>
<path d="M0 0 C3.875 0.875 3.875 0.875 5 2 C5.12578029 3.5795664 5.17578015 5.16547694 5.1875 6.75 C5.20167969 7.61109375 5.21585938 8.4721875 5.23046875 9.359375 C4.97956222 12.23416845 4.18976237 14.38534436 3 17 C3.77085937 16.97679687 4.54171875 16.95359375 5.3359375 16.9296875 C6.33882812 16.91164062 7.34171875 16.89359375 8.375 16.875 C9.37273437 16.85179687 10.37046875 16.82859375 11.3984375 16.8046875 C14 17 14 17 16 19 C16 20.65 16 22.3 16 24 C10.72 24 5.44 24 0 24 C-0.4125 25.299375 -0.825 26.59875 -1.25 27.9375 C-2.85533149 32.77653752 -4.84913976 37.38165542 -7 42 C-7.99 42 -8.98 42 -10 42 C-10.33 41.67 -10.66 41.34 -11 41 C-10.83441026 35.17888361 -9.52509843 29.59202759 -8 24 C-9.13888672 24.05220703 -9.13888672 24.05220703 -10.30078125 24.10546875 C-11.29464844 24.13253906 -12.28851563 24.15960938 -13.3125 24.1875 C-14.29863281 24.22230469 -15.28476563 24.25710937 -16.30078125 24.29296875 C-19 24 -19 24 -20.91796875 22.73828125 C-21.27503906 22.16464844 -21.63210937 21.59101563 -22 21 C-21.67 19.68 -21.34 18.36 -21 17 C-15.72 17 -10.44 17 -5 17 C-4.731875 15.494375 -4.46375 13.98875 -4.1875 12.4375 C-3.29742108 7.93587781 -1.97545538 4.1304976 0 0 Z " fill="#6763C8" transform="translate(188,181)"/>
<path d="M0 0 C0.33 0.66 0.66 1.32 1 2 C0.67 2.66 0.34 3.32 0 4 C1.32 4 2.64 4 4 4 C3.67 6.97 3.34 9.94 3 13 C2.34 13 1.68 13 1 13 C1 11.02 1 9.04 1 7 C0.32517578 8.03833984 0.32517578 8.03833984 -0.36328125 9.09765625 C-5.96229387 17.61399008 -11.92203369 25.82156004 -18 34 C-13.38 34 -8.76 34 -4 34 C-4 34.33 -4 34.66 -4 35 C-8.95 35 -13.9 35 -19 35 C-19.495 33.515 -19.495 33.515 -20 32 C-21.98 32.495 -21.98 32.495 -24 33 C-20.96839965 28.24589945 -17.81624378 23.68332317 -14.25 19.3125 C-9.18578888 13.10000845 -4.60792873 6.55307898 0 0 Z " fill="#7572CE" transform="translate(150,168)"/>
<path d="M0 0 C0.33 0 0.66 0 1 0 C1.20086443 3.71599191 1.1519437 4.77208445 -1 8 C-0.34 8.33 0.32 8.66 1 9 C-11.33149171 23.44383057 -11.33149171 23.44383057 -19 26 C-19.66 25.67 -20.32 25.34 -21 25 C-19.87756645 21.63269934 -19.44513153 21.40997392 -16.625 19.5625 C-12.65375297 16.70118408 -9.37268851 13.45444607 -6.0625 9.875 C-5.57797363 9.3601001 -5.09344727 8.8452002 -4.59423828 8.31469727 C-2.19718965 5.67572507 -0.40660744 3.61621086 0 0 Z " fill="#7A77CF" transform="translate(120,205)"/>
<path d="M0 0 C2 3 2 3 1.96875 5.015625 C0.44591312 12.27448079 -2.69944105 16.6746062 -8.75 20.9375 C-11 22 -11 22 -13 22 C-13 21.34 -13 20.68 -13 20 C-14.32 19.67 -15.64 19.34 -17 19 C-14 17 -14 17 -11.625 15.875 C-7.9624569 13.25889779 -6.16754543 9.88313458 -4 6 C-3.34 6.66 -2.68 7.32 -2 8 C-0.80900253 5.99068305 -0.80900253 5.99068305 -1 3.4375 C-1 1 -1 1 0 0 Z " fill="#7572CD" transform="translate(267,190)"/>
<path d="M0 0 C0.66 0.33 1.32 0.66 2 1 C0.52330783 5.90116848 -2.24933852 8.70189221 -5.8125 12.1875 C-6.59463867 12.98704102 -6.59463867 12.98704102 -7.39257812 13.80273438 C-10.38995136 16.77765537 -12.86317806 18.75360078 -17 20 C-17 19.34 -17 18.68 -17 18 C-16.34 18 -15.68 18 -15 18 C-15 16.68 -15 15.36 -15 14 C-13.8984375 12.32421875 -13.8984375 12.32421875 -12.375 10.6875 C-9.58719672 7.64266521 -6.96905378 4.51217484 -4.39453125 1.28515625 C-3 0 -3 0 0 0 Z " fill="#706CCB" transform="translate(273,209)"/>
<path d="M0 0 C3.375 4.5 3.375 4.5 3 9 C2.34 9 1.68 9 1 9 C0.67 9.66 0.34 10.32 0 11 C-1.97485205 12.3703055 -3.97386717 13.70672372 -6 15 C-6 14.34 -6 13.68 -6 13 C-7.32 13 -8.64 13 -10 13 C-10.14285714 4.42857143 -10.14285714 4.42857143 -9 1 C-8.34 1 -7.68 1 -7 1 C-7.33 4.3 -7.66 7.6 -8 11 C-5.36 7.37 -2.72 3.74 0 0 Z " fill="#7F7CD1" transform="translate(412,213)"/>
<path d="M0 0 C1.485 0.7115625 1.485 0.7115625 3 1.4375 C6.99189495 3.16813748 10.68114582 3.62115314 15 4 C15.33 3.01 15.66 2.02 16 1 C15.67 2.65 15.34 4.3 15 6 C13.35 6.33 11.7 6.66 10 7 C13.3 7.33 16.6 7.66 20 8 C15.62968541 10.91354306 12.01364665 9.96686187 7 9 C3.65082723 7.6244469 1.54344682 6.54344682 -1 4 C-0.625 1.875 -0.625 1.875 0 0 Z " fill="#7D7AD0" transform="translate(439,221)"/>
<path d="M0 0 C1.33981486 0.3062434 2.67511887 0.63451555 4 1 C4.33 2.65 4.66 4.3 5 6 C4.34 5.67 3.68 5.34 3 5 C3 4.34 3 3.68 3 3 C0.03 5.31 -2.94 7.62 -6 10 C-6.33 9.01 -6.66 8.02 -7 7 C-8.32 7 -9.64 7 -11 7 C-9.72530598 4.45061196 -8.50840774 4.25420387 -6 3 C-5.2265625 2.195625 -5.2265625 2.195625 -4.4375 1.375 C-3 0 -3 0 0 0 Z " fill="#7975CF" transform="translate(363,219)"/>
<path d="M0 0 C0.33 0 0.66 0 1 0 C1.21222719 4.56288469 0.77997029 6.55007426 -1 11 C-5.95 11.33 -10.9 11.66 -16 12 C-15.67 12.99 -15.34 13.98 -15 15 C-11.37 15.33 -7.74 15.66 -4 16 C-4 17.65 -4 19.3 -4 21 C-4.33 19.68 -4.66 18.36 -5 17 C-6.13888672 17.05220703 -6.13888672 17.05220703 -7.30078125 17.10546875 C-8.29464844 17.13253906 -9.28851563 17.15960938 -10.3125 17.1875 C-11.29863281 17.22230469 -12.28476563 17.25710937 -13.30078125 17.29296875 C-16 17 -16 17 -17.91796875 15.73828125 C-18.27503906 15.16464844 -18.63210937 14.59101563 -19 14 C-18.67 12.68 -18.34 11.36 -18 10 C-12.72 10 -7.44 10 -2 10 C-1.34 6.7 -0.68 3.4 0 0 Z " fill="#807DD2" transform="translate(185,188)"/>
<path d="M0 0 C1.7634375 0.7115625 1.7634375 0.7115625 3.5625 1.4375 C7.40103259 2.88806847 10.92740191 3.57577103 15 4 C15 3.01 15 2.02 15 1 C15.66 1 16.32 1 17 1 C17 2.32 17 3.64 17 5 C14.59454362 6.20272819 13.05003047 6.10071472 10.375 6.0625 C9.14910156 6.04896484 9.14910156 6.04896484 7.8984375 6.03515625 C6.95871094 6.01775391 6.95871094 6.01775391 6 6 C6 6.66 6 7.32 6 8 C4.68 7.67 3.36 7.34 2 7 C2 6.34 2 5.68 2 5 C1.34 5 0.68 5 0 5 C0 3.35 0 1.7 0 0 Z " fill="#7E7BD1" transform="translate(305,221)"/>
<path d="M0 0 C0.6875 1.75 0.6875 1.75 1 4 C0.01 5.32 -0.98 6.64 -2 8 C2.62 8 7.24 8 12 8 C12 8.33 12 8.66 12 9 C7.05 9 2.1 9 -3 9 C-3.33 8.01 -3.66 7.02 -4 6 C-5.32 6.33 -6.64 6.66 -8 7 C-5.87696444 3.81544666 -4.26504948 2.84182279 -1 1 C-0.67 0.67 -0.34 0.34 0 0 Z " fill="#8481D3" transform="translate(134,194)"/>
<path d="M0 0 C0.66 0.33 1.32 0.66 2 1 C-1.95825209 5.82485166 -5.59160025 9.83410746 -11 13 C-8.72126867 7.61390776 -4.84467788 3.22978525 0 0 Z " fill="#7C79D0" transform="translate(359,185)"/>
<path d="M0 0 C0.66 0.33 1.32 0.66 2 1 C0.25 5.875 0.25 5.875 -2 7 C-2.33 6.34 -2.66 5.68 -3 5 C-4.32 5.99 -5.64 6.98 -7 8 C-7.66 7.67 -8.32 7.34 -9 7 C-8.07347299 5.82460004 -7.13336613 4.65989423 -6.1875 3.5 C-5.66542969 2.8503125 -5.14335937 2.200625 -4.60546875 1.53125 C-3 0 -3 0 0 0 Z " fill="#7E7BD1" transform="translate(273,209)"/>
<path d="M0 0 C0.99 0 1.98 0 3 0 C3 3.96 3 7.92 3 12 C3.66 12.33 4.32 12.66 5 13 C4.67 13.66 4.34 14.32 4 15 C3.01 14.67 2.02 14.34 1 14 C1.01160156 13.15695313 1.02320313 12.31390625 1.03515625 11.4453125 C1.04417969 10.34960938 1.05320312 9.25390625 1.0625 8.125 C1.07410156 7.03445312 1.08570313 5.94390625 1.09765625 4.8203125 C1.19744303 2.04822454 1.19744303 2.04822454 0 0 Z " fill="#8380D3" transform="translate(294,191)"/>
<path d="M0 0 C0.33 0.66 0.66 1.32 1 2 C0.67 2.66 0.34 3.32 0 4 C1.32 4 2.64 4 4 4 C3.67 6.97 3.34 9.94 3 13 C2.34 13 1.68 13 1 13 C1.020625 12.05125 1.04125 11.1025 1.0625 10.125 C1.22551826 7.09333717 1.22551826 7.09333717 0 5 C-0.99 5.33 -1.98 5.66 -3 6 C-1.125 1.125 -1.125 1.125 0 0 Z " fill="#7E7CD1" transform="translate(150,168)"/>
<path d="M0 0 C0 3 0 3 -1.375 4.6875 C-3 6 -3 6 -5 6 C-5 6.66 -5 7.32 -5 8 C-4.01 8.33 -3.02 8.66 -2 9 C-3.32 9.33 -4.64 9.66 -6 10 C-6 9.34 -6 8.68 -6 8 C-7.32 7.67 -8.64 7.34 -10 7 C-8.17725047 5.78483364 -6.3280819 4.60668208 -4.4375 3.5 C-1.93582181 2.0902355 -1.93582181 2.0902355 0 0 Z " fill="#817ED2" transform="translate(260,202)"/>
<path d="M0 0 C3.63 0 7.26 0 11 0 C10.67 0.66 10.34 1.32 10 2 C7.6875 2.5625 7.6875 2.5625 5 3 C3.66457061 3.32483418 2.33038449 3.6550855 1 4 C0.67 2.68 0.34 1.36 0 0 Z " fill="#807ED3" transform="translate(115,201)"/>
<path d="M0 0 C0.66 0.66 1.32 1.32 2 2 C4.10820797 1.6814823 4.10820797 1.6814823 6 1 C5.34 2.65 4.68 4.3 4 6 C3.01 6 2.02 6 1 6 C0 5 0 5 -0.0625 2.4375 C-0.041875 1.633125 -0.02125 0.82875 0 0 Z " fill="#7C78D0" transform="translate(177,217)"/>
<path d="M0 0 C2.625 1.4375 2.625 1.4375 5 3 C3 4 3 4 0.9375 4.4375 C-0.0215625 4.7159375 -0.0215625 4.7159375 -1 5 C-1.33 5.66 -1.66 6.32 -2 7 C-2.66 7 -3.32 7 -4 7 C-3.39816251 4.97954558 -2.72693904 2.97888961 -2 1 C-1.34 0.67 -0.68 0.34 0 0 Z " fill="#7C79D0" transform="translate(374,198)"/>
<path d="M0 0 C-1.49097658 3.7952131 -3.75700849 5.61042731 -7 8 C-7 5 -7 5 -4.625 2.3125 C-2 0 -2 0 0 0 Z " fill="#7A77CF" transform="translate(285,184)"/>
<path d="M0 0 C3.465 1.485 3.465 1.485 7 3 C5.68 3.33 4.36 3.66 3 4 C3.33 4.99 3.66 5.98 4 7 C2.0625 6.25 2.0625 6.25 0 5 C-0.8125 2.9375 -0.8125 2.9375 -1 1 C-0.67 0.67 -0.34 0.34 0 0 Z " fill="#8986D5" transform="translate(439,221)"/>
<path d="M0 0 C0.33 1.32 0.66 2.64 1 4 C0.401875 4.144375 -0.19625 4.28875 -0.8125 4.4375 C-2.56150404 4.8872439 -4.28677023 5.42892341 -6 6 C-4.75453595 2.26360784 -3.36595047 1.81243487 0 0 Z " fill="#6D6ACB" transform="translate(139,187)"/>
<path d="M0 0 C0.66 0.33 1.32 0.66 2 1 C-1.625 5.875 -1.625 5.875 -5 7 C-3.70700306 4.11562221 -2.34058637 2.12780579 0 0 Z " fill="#7976D0" transform="translate(451,184)"/>
</svg>
