<?xml version="1.0" encoding="UTF-8"?>
<svg version="1.1" xmlns="http://www.w3.org/2000/svg" width="488" height="236">
<path d="M0 0 C0.80824219 -0.01224609 1.61648438 -0.02449219 2.44921875 -0.03710938 C15.12981308 -0.0675428 27.19797047 3.65258473 36.75 12.1875 C41.74601542 17.5779377 43.00437487 22.92029369 44.28515625 29.98046875 C44.65869659 32.21595409 44.65869659 32.21595409 45.75 34.1875 C46.8431268 44.67076525 43.90670879 52.13914709 37.44140625 60.2734375 C31.14625849 67.39727676 23.48606702 73.16265084 13.75 74.1875 C12.698125 74.31125 11.64625 74.435 10.5625 74.5625 C5.18710973 74.03377309 1.41437909 71.80565284 -3.25 69.1875 C-4.91675781 68.29804688 -4.91675781 68.29804688 -6.6171875 67.390625 C-19.61413158 60.35643663 -32.23355352 51.79761142 -37.25 37.1875 C-38.29987998 31.65544011 -37.42578928 27.85000291 -34.375 23.125 C-32.7578125 20.83984375 -32.7578125 20.83984375 -31.25 19.1875 C-30.59 19.1875 -29.93 19.1875 -29.25 19.1875 C-29.12044922 18.29998047 -29.12044922 18.29998047 -28.98828125 17.39453125 C-28.00050174 11.8394043 -26.90921169 8.73255237 -22.25 5.1875 C-14.88105196 0.78701483 -8.46023123 0.0066199 0 0 Z " fill="#8A87D5" transform="translate(327.25,80.8125)"/>
<path d="M0 0 C0.80824219 -0.01224609 1.61648438 -0.02449219 2.44921875 -0.03710938 C15.12981308 -0.0675428 27.19797047 3.65258473 36.75 12.1875 C41.74601542 17.5779377 43.00437487 22.92029369 44.28515625 29.98046875 C44.65869659 32.21595409 44.65869659 32.21595409 45.75 34.1875 C46.8431268 44.67076525 43.90670879 52.13914709 37.44140625 60.2734375 C31.14625849 67.39727676 23.48606702 73.16265084 13.75 74.1875 C12.698125 74.31125 11.64625 74.435 10.5625 74.5625 C4.16348524 73.93308871 -1.90497017 70.99806875 -6.25 66.1875 C-4.81720703 66.18363281 -4.81720703 66.18363281 -3.35546875 66.1796875 C8.39294824 65.82828919 16.18928101 63.14362844 24.6875 54.5625 C31.5111019 46.38151493 33.44693204 37.55065398 33.0703125 27.04296875 C32.53362502 22.25859622 31.00172772 19.56036267 27.8125 16.0625 C15.84813799 8.7373804 2.1469852 8.60141307 -11.25 11.4375 C-15.91237943 12.66013149 -20.22544897 14.27923446 -24.54296875 16.41796875 C-26.25 17.1875 -26.25 17.1875 -28.25 17.1875 C-28.0117224 13.13678083 -27.6873693 10.75740545 -25.1875 7.5 C-17.23418552 1.23888009 -9.89529717 0.0077428 0 0 Z " fill="#CECCED" transform="translate(327.25,80.8125)"/>
<path d="M0 0 C4.14522989 2.07261494 5.86375419 4.04757748 7.4375 8.4375 C8.22102942 11.99351813 8.80753771 15.51155795 9.25 19.125 C11.86226727 15.61195091 13.4569789 12.73145369 14.625 8.5 C15.70306913 5.0687262 16.27070391 4.10523718 19 1.5 C22.92879248 -0.16218143 25.1364734 0.25483091 29.25 1.125 C29.91 0.795 30.57 0.465 31.25 0.125 C33.725 2.105 33.725 2.105 36.25 4.125 C37.013125 3.444375 37.77625 2.76375 38.5625 2.0625 C42.54160515 -0.63794786 46.26240465 0.05535134 50.859375 0.5703125 C53.25 1.125 53.25 1.125 55.25 3.125 C55.12344368 8.69347804 52.93643612 11.25873773 49.25 15.125 C48.59 15.455 47.93 15.785 47.25 16.125 C47.58 16.681875 47.91 17.23875 48.25 17.8125 C49.41803602 20.51358329 49.62367024 22.21037214 49.25 25.125 C48.0703125 26.75390625 48.0703125 26.75390625 46.25 28.125 C43.69140625 28.5234375 43.69140625 28.5234375 40.8125 28.5 C39.86503906 28.50773437 38.91757813 28.51546875 37.94140625 28.5234375 C34.85068351 28.06588493 33.44211856 27.3326655 31.25 25.125 C31.25 24.135 31.25 23.145 31.25 22.125 C33.89 22.455 36.53 22.785 39.25 23.125 C38.97285156 22.62871094 38.69570312 22.13242188 38.41015625 21.62109375 C35.96312324 17.03181832 34.68203357 13.30940279 34.25 8.125 C33.91226563 8.61871094 33.57453125 9.11242187 33.2265625 9.62109375 C32.55753906 10.58208984 32.55753906 10.58208984 31.875 11.5625 C31.43414062 12.20058594 30.99328125 12.83867188 30.5390625 13.49609375 C29.25 15.125 29.25 15.125 27.25 16.125 C27.91 17.115 28.57 18.105 29.25 19.125 C29.7949967 24.35696834 29.7949967 24.35696834 28.06640625 26.79296875 C25.58924505 28.60955363 23.92084809 28.49174113 20.875 28.4375 C19.93914062 28.43363281 19.00328125 28.42976563 18.0390625 28.42578125 C15.12452354 28.11146823 12.90591201 27.33706166 10.25 26.125 C9.59 26.785 8.93 27.445 8.25 28.125 C4.45122401 28.47673852 2.10639847 28.65201444 -1.1875 26.625 C-1.703125 26.13 -2.21875 25.635 -2.75 25.125 C-3.2759375 25.8675 -3.2759375 25.8675 -3.8125 26.625 C-5.75 28.125 -5.75 28.125 -9.125 28.625 C-12.75 28.125 -12.75 28.125 -15.75 26.125 C-17.75 23.125 -17.75 23.125 -17.9375 19.375 C-16.35234625 11.59600473 -11.04860713 5.49047346 -4.63671875 1.09375 C-2.75 0.125 -2.75 0.125 0 0 Z M25.25 9.125 C26.25 13.125 26.25 13.125 26.25 13.125 Z M-1.75 11.125 C-2.66878231 12.19301128 -3.53608787 13.30567163 -4.375 14.4375 C-5.07496094 15.35982422 -5.07496094 15.35982422 -5.7890625 16.30078125 C-6.10617188 16.90277344 -6.42328125 17.50476563 -6.75 18.125 C-6.42 19.115 -6.09 20.105 -5.75 21.125 C-2.83772731 17.83695019 -1.25298788 15.52614397 -0.75 11.125 C-1.08 11.125 -1.41 11.125 -1.75 11.125 Z M45.25 12.125 C46.25 14.125 46.25 14.125 46.25 14.125 Z M16.25 18.125 C14.765 20.105 14.765 20.105 13.25 22.125 C15.56 22.785 17.87 23.445 20.25 24.125 C19.09826645 21.65699953 18.20216435 20.07716435 16.25 18.125 Z M7.25 20.125 C8.25 22.125 8.25 22.125 8.25 22.125 Z M-7.75 21.125 C-6.75 23.125 -6.75 23.125 -6.75 23.125 Z " fill="#5D5BC1" transform="translate(146.75,109.875)"/>
<path d="M0 0 C2.67349715 0.28142075 4.55305094 0.70717131 6.8125 2.1875 C8.51995571 4.79361661 8.20267097 6.9599355 8 10 C10.25760857 10.78670551 10.25760857 10.78670551 13 11 C13.7425 10.525625 14.485 10.05125 15.25 9.5625 C19.02339892 7.41852334 22.73762929 7.1858393 27 8 C29.17124585 9.72336554 29.89366142 10.52147638 30.5 13.25 C29.77774741 17.22238925 27.65528767 20.00676662 25 23 C24.01 23.495 24.01 23.495 23 24 C23.350625 24.53625 23.70125 25.0725 24.0625 25.625 C25.31856608 28.80703406 24.92070253 30.74212952 24 34 C19.57048752 36.95300832 15.19863438 36.66928526 10 36 C7.3125 34 7.3125 34 6 32 C5.319375 32.66 4.63875 33.32 3.9375 34 C0.28060335 36.48980198 -1.65420914 36.55310065 -6 36 C-8.21875 34.76953125 -8.21875 34.76953125 -10 33 C-10.58765532 28.26565012 -9.39672229 23.46602858 -7.375 19.1875 C-5.90802271 15.78677992 -5.85067426 14.44797723 -7 11 C-5.68 10.67 -4.36 10.34 -3 10 C-2.86722656 9.36191406 -2.73445312 8.72382812 -2.59765625 8.06640625 C-2.42105469 7.24011719 -2.24445313 6.41382812 -2.0625 5.5625 C-1.88847656 4.73878906 -1.71445313 3.91507812 -1.53515625 3.06640625 C-1 1 -1 1 0 0 Z M5 14 C4.3012307 15.76641683 3.61633417 17.53832664 2.9375 19.3125 C2.55464844 20.29863281 2.17179688 21.28476563 1.77734375 22.30078125 C0.70610152 25.06233263 0.70610152 25.06233263 2 28 C6.15166045 25.06941615 9.21390967 22.71876122 10.4375 17.625 C10.623125 16.42875 10.80875 15.2325 11 14 C9.02 14 7.04 14 5 14 Z M11 26 C9.515 27.98 9.515 27.98 8 30 C11.86763446 31.87543354 11.86763446 31.87543354 16 31 C14.35 29.35 12.7 27.7 11 26 Z M0 28 C0 28.99 0 29.98 0 31 C0.66 30.01 1.32 29.02 2 28 C1.34 28 0.68 28 0 28 Z " fill="#605DBD" transform="translate(245,102)"/>
<path d="M0 0 C0.99 0.66 1.98 1.32 3 2 C2.78472656 2.5259375 2.56945312 3.051875 2.34765625 3.59375 C1.84539659 7.07006407 3.08019248 9.29248737 4.4375 12.5 C6.08991835 16.42618202 7 18.69862613 7 23 C7.99 23.33 8.98 23.66 10 24 C11.1875 26.5625 11.1875 26.5625 12 29 C12.66 29 13.32 29 14 29 C16.125 30.875 16.125 30.875 18 33 C18 33.66 18 34.32 18 35 C18.66 35 19.32 35 20 35 C20 35.66 20 36.32 20 37 C20.66 37 21.32 37 22 37 C22 37.66 22 38.32 22 39 C32.63868779 42.42786988 43.57724284 42.1200546 54 38 C49.61821205 44.34603772 43.76891037 48.9169916 36.02587891 50.37060547 C25.34601519 51.64444181 17.63402757 49.64558486 9 43 C7.87851562 42.17242187 7.87851562 42.17242187 6.734375 41.328125 C-0.19023246 35.77786711 -6.7172321 27.75920008 -8.40625 18.859375 C-8.69713054 12.31456275 -6.40285191 7.82488694 -2 3 C-1.34 3 -0.68 3 0 3 C0 2.01 0 1.02 0 0 Z " fill="#A6A4E0" transform="translate(298,97)"/>
<path d="M0 0 C0.66 0.66 1.32 1.32 2 2 C1.73293539 7.87542145 -0.90992766 11.90992766 -5 16 C-4.67 16.66 -4.34 17.32 -4 18 C-3.6875 20.9375 -3.6875 20.9375 -4 24 C-6.10769824 26.05957728 -7.47382682 26.92043235 -10.40234375 27.36328125 C-15.14789343 27.26822401 -18.59258834 26.86981101 -23 25 C-23.99 25.66 -24.98 26.32 -26 27 C-29.56212428 27.45473927 -31.35640118 27.39606081 -34.4375 25.5 C-36.29249443 22.53200892 -36.23602949 20.69037266 -35.625 17.28515625 C-34.68832579 13.86044115 -33.36441776 10.64181837 -31.9375 7.39453125 C-30.97605522 4.93884104 -30.44248201 2.5949726 -30 0 C-27.75 -0.3125 -27.75 -0.3125 -25 0 C-22.39132547 2.46766509 -21.13660282 4.04378023 -20.625 7.625 C-21 10 -21 10 -23 13 C-23 13.99 -23 14.98 -23 16 C-20.53670417 12.63349569 -19.11665012 10.48326479 -18.125 6.375 C-17 3 -17 3 -14.5625 0.5 C-9.60560391 -1.58711414 -5.20114454 -1.20680151 0 0 Z M-7 13 C-6 15 -6 15 -6 15 Z M-25 16 C-25.33 17.32 -25.66 18.64 -26 20 C-25.34 19.67 -24.68 19.34 -24 19 C-24.33 18.01 -24.66 17.02 -25 16 Z M-17 17 C-17.33 17.99 -17.66 18.98 -18 20 C-18.99 20.495 -18.99 20.495 -20 21 C-17.69 21.66 -15.38 22.32 -13 23 C-14.485 20.03 -14.485 20.03 -16 17 C-16.33 17 -16.66 17 -17 17 Z M-27 20 C-26 22 -26 22 -26 22 Z " fill="#5D5CBE" transform="translate(235,111)"/>
<path d="M0 0 C3 1 3 1 4 3 C5.0931268 13.48326525 2.15670879 20.95164709 -4.30859375 29.0859375 C-10.60374151 36.20977676 -18.26393298 41.97515084 -28 43 C-29.051875 43.12375 -30.10375 43.2475 -31.1875 43.375 C-37.58651476 42.74558871 -43.65497017 39.81056875 -48 35 C-46.56720703 34.99613281 -46.56720703 34.99613281 -45.10546875 34.9921875 C-34.94879887 34.68839877 -27.08585507 33.19586525 -19.65234375 25.6015625 C-18.27930934 24.02170077 -16.94243816 22.4091473 -15.65625 20.7578125 C-15.1096875 20.17773438 -14.563125 19.59765625 -14 19 C-13.01 19 -12.02 19 -11 19 C-10.773125 18.29875 -10.54625 17.5975 -10.3125 16.875 C-9.00309441 14.00677822 -7.37747474 12.04268643 -5.30859375 9.69140625 C-3.0115789 6.72242885 -1.57971753 3.39346729 0 0 Z " fill="#DDDEF3" transform="translate(369,112)"/>
<path d="M0 0 C2.4375 1.0625 2.4375 1.0625 5 3 C6.20700227 8.1502767 5.83518459 12.57346098 4.78515625 17.68359375 C4.65056503 18.38396255 4.51597382 19.08433136 4.37730408 19.80592346 C3.94958323 22.01866124 3.50633964 24.22794524 3.0625 26.4375 C2.76784429 27.94706379 2.47421443 29.4568282 2.18164062 30.96679688 C1.46626256 34.64695627 0.73695734 38.32410376 0 42 C-3.10725368 42.99591464 -3.67371254 43.16314373 -6.75 41.625 C-9.66723663 38.22155727 -9.42039404 36.16126577 -9.17578125 31.828125 C-9.11777344 31.22484375 -9.05976562 30.6215625 -9 30 C-14.0376376 29.83749556 -16.71223736 29.91926705 -20.6484375 33.22265625 C-22.34951645 34.9978062 -24.01579166 36.80714903 -25.640625 38.65234375 C-28.04153855 41.04133223 -29.79918644 42.00683976 -33 43 C-33.33 41.68 -33.66 40.36 -34 39 C-30.7 36.03 -27.4 33.06 -24 30 C-24.66 28.35 -25.32 26.7 -26 25 C-22 24 -22 24 -20.01879883 23.64257812 C-16.53482618 22.53363919 -14.79272475 19.33357613 -12.6875 16.5 C-12.20692139 15.87013184 -11.72634277 15.24026367 -11.23120117 14.59130859 C-10.26574415 13.32526799 -9.30417491 12.0562524 -8.34667969 10.78417969 C-6.52925985 8.37632904 -4.67191607 6.0004989 -2.8125 3.625 C-1.87462181 2.41696018 -0.93694924 1.20876045 0 0 Z M-7 16 C-8.05654417 17.47506444 -9.0707001 18.98064696 -10.0625 20.5 C-10.88427734 21.75296875 -10.88427734 21.75296875 -11.72265625 23.03125 C-12.35494141 24.00578125 -12.35494141 24.00578125 -13 25 C-11.02 25 -9.04 25 -7 25 C-6.67 22.03 -6.34 19.06 -6 16 C-6.33 16 -6.66 16 -7 16 Z " fill="#5C5CC0" transform="translate(87,96)"/>
<path d="M0 0 C1.10021484 -0.01836914 1.10021484 -0.01836914 2.22265625 -0.03710938 C6.70969856 -0.04914974 10.27197609 0.49495245 14.5 2.1875 C13.84 2.5175 13.18 2.8475 12.5 3.1875 C12.5 4.1775 12.5 5.1675 12.5 6.1875 C11.30246094 6.14109375 10.10492188 6.0946875 8.87109375 6.046875 C-2.56444433 5.7425564 -15.46032578 5.77063275 -25.5 12.1875 C-26.19100553 14.17922182 -26.85902703 16.17911804 -27.5 18.1875 C-28.49 18.5175 -29.48 18.8475 -30.5 19.1875 C-30.94524767 17.77955466 -31.35525172 16.36042985 -31.75 14.9375 C-31.98203125 14.14859375 -32.2140625 13.3596875 -32.453125 12.546875 C-32.5 10.1875 -32.5 10.1875 -30.9765625 8.05859375 C-27.98157025 5.79581569 -25.17592171 4.71036794 -21.625 3.5 C-20.43132812 3.08363281 -19.23765625 2.66726562 -18.0078125 2.23828125 C-11.94383783 0.42178995 -6.27889705 0.00551748 0 0 Z " fill="#9896D9" transform="translate(331.5,89.8125)"/>
<path d="M0 0 C1.9375 0.75 1.9375 0.75 4 2 C5.23843794 4.95319818 5.04187157 5.87438528 4 9 C4.969375 9.2475 5.93875 9.495 6.9375 9.75 C10 11 10 11 10.9375 13.0625 C10.958125 13.701875 10.97875 14.34125 11 15 C10 16 10 16 7.93359375 16.09765625 C7.10988281 16.08605469 6.28617188 16.07445313 5.4375 16.0625 C4.61121094 16.05347656 3.78492187 16.04445313 2.93359375 16.03515625 C1.97646484 16.01775391 1.97646484 16.01775391 1 16 C0.71125 16.9075 0.4225 17.815 0.125 18.75 C-0.76531776 21.32202908 -1.71494413 23.61346766 -3 26 C-4.32 25.67 -5.64 25.34 -7 25 C-6.67 22.36 -6.34 19.72 -6 17 C-7.98 16.34 -9.96 15.68 -12 15 C-12.33 13.35 -12.66 11.7 -13 10 C-9.7 10 -6.4 10 -3 10 C-2.87625 9.0925 -2.7525 8.185 -2.625 7.25 C-2.07890323 4.41029677 -1.42736197 2.47409409 0 0 Z " fill="#5F5BB9" transform="translate(104,109)"/>
<path d="M0 0 C5.75 3.75 5.75 3.75 8 6 C9.002282 14.82008162 2.87847967 21.23695695 -2 28 C-2.66 27.67 -3.32 27.34 -4 27 C-3.71125 26.30777344 -3.4225 25.61554688 -3.125 24.90234375 C0.14622599 16.28130026 0.44732702 9.09564944 0 0 Z " fill="#B6B4E5" transform="translate(360,103)"/>
<path d="M0 0 C5.3820598 -0.35880399 5.3820598 -0.35880399 7.9375 1.125 C9 3 9 3 8.875 6.0625 C8 9 8 9 5 11 C0.45945946 10.45945946 0.45945946 10.45945946 -1 9 C-1.23728814 2.47457627 -1.23728814 2.47457627 0 0 Z " fill="#5B5AC6" transform="translate(211,97)"/>
<path d="M0 0 C0.84096573 4.67203182 0.97206086 8.35570925 0 13 C0 13.66 0 14.32 0 15 C-1.65 15 -3.3 15 -5 15 C-4.34 14.67 -3.68 14.34 -3 14 C-3 13.34 -3 12.68 -3 12 C-3.66 12 -4.32 12 -5 12 C-5 11.34 -5 10.68 -5 10 C-5.66 10 -6.32 10 -7 10 C-7.33 10.66 -7.66 11.32 -8 12 C-8 9.69 -8 7.38 -8 5 C-7.34 5 -6.68 5 -6 5 C-6 4.01 -6 3.02 -6 2 C-3 0 -3 0 0 0 Z " fill="#5D5BC5" transform="translate(209,122)"/>
<path d="M0 0 C-0.1875 1.875 -0.1875 1.875 -1 4 C-1.7425 4.268125 -2.485 4.53625 -3.25 4.8125 C-6.7788075 6.33630324 -7.88939326 8.35114885 -9.88671875 11.5390625 C-10.25410156 12.02117187 -10.62148437 12.50328125 -11 13 C-11.66 13 -12.32 13 -13 13 C-13.66 15.97 -14.32 18.94 -15 22 C-14.34 22 -13.68 22 -13 22 C-12.67 22.99 -12.34 23.98 -12 25 C-12.66 25.33 -13.32 25.66 -14 26 C-15.5625 25 -15.5625 25 -17 23 C-17.12092497 15.98635174 -14.52624098 11.2628455 -10 6 C-3.35934292 0 -3.35934292 0 0 0 Z " fill="#6461B0" transform="translate(146,110)"/>
<path d="M0 0 C0.66 0.33 1.32 0.66 2 1 C0.75482035 2.13033298 -0.49636652 3.25405036 -1.75 4.375 C-2.44609375 5.00148437 -3.1421875 5.62796875 -3.859375 6.2734375 C-5.86659836 7.89240233 -7.6111291 9.04445164 -10 10 C-12.25 9.625 -12.25 9.625 -14 9 C-13.01 8.67 -12.02 8.34 -11 8 C-11 7.34 -11 6.68 -11 6 C-13.97 5.67 -16.94 5.34 -20 5 C-20 4.67 -20 4.34 -20 4 C-18.83984375 3.94392578 -18.83984375 3.94392578 -17.65625 3.88671875 C-11.13294447 3.47497546 -6.02925854 2.45636459 0 0 Z " fill="#9D9CD8" transform="translate(350,135)"/>
<path d="M0 0 C1.65 0 3.3 0 5 0 C5 0.99 5 1.98 5 3 C6.32 3.66 7.64 4.32 9 5 C8.01 6.485 8.01 6.485 7 8 C5.68 6.02 4.36 4.04 3 2 C2.01 2.66 1.02 3.32 0 4 C1.65 4.99 3.3 5.98 5 7 C3.25 8.125 3.25 8.125 1 9 C-1.25 8.125 -1.25 8.125 -3 7 C-3.763125 7.680625 -4.52625 8.36125 -5.3125 9.0625 C-6.199375 9.701875 -7.08625 10.34125 -8 11 C-8.99 10.67 -9.98 10.34 -11 10 C-10.01 9.34 -9.02 8.68 -8 8 C-6.7773242 7.017588 -5.56944472 6.0165487 -4.375 5 C-3.45847656 4.2265625 -3.45847656 4.2265625 -2.5234375 3.4375 C-0.8850634 2.05647464 -0.8850634 2.05647464 0 0 Z " fill="#6564B5" transform="translate(254,127)"/>
<path d="M0 0 C-0.46319911 4.72463088 -1.09891706 8.17057052 -4 12 C-4.66 12 -5.32 12 -6 12 C-6 9.36 -6 6.72 -6 4 C-7.32 3.34 -8.64 2.68 -10 2 C-10 1.34 -10 0.68 -10 0 C-6.33694766 -0.74926071 -3.57644848 -1.2380014 0 0 Z " fill="#5D5BC6" transform="translate(104,121)"/>
<path d="M0 0 C2.4375 1.0625 2.4375 1.0625 5 3 C6.29283118 8.38679657 5.77775669 12.66794014 4.5625 17.9375 C4.41490234 18.62134766 4.26730469 19.30519531 4.11523438 20.00976562 C3.75412706 21.67551872 3.37857288 23.33812923 3 25 C2.67 25 2.34 25 2 25 C1.875 18.375 1.875 18.375 3 15 C3.06802967 13.27204648 3.08495645 11.54164635 3.0625 9.8125 C3.05347656 8.91144531 3.04445313 8.01039062 3.03515625 7.08203125 C3.02355469 6.39496094 3.01195313 5.70789063 3 5 C-0.52069985 5.58678331 -2.71299843 6.35649921 -6 8 C-4.02 5.36 -2.04 2.72 0 0 Z " fill="#5D5BA7" transform="translate(87,96)"/>
<path d="M0 0 C0.97324219 0.08765625 1.94648438 0.1753125 2.94921875 0.265625 C3.72910156 0.42546875 4.50898438 0.5853125 5.3125 0.75 C5.6425 1.41 5.9725 2.07 6.3125 2.75 C1.5625 3.875 1.5625 3.875 -0.6875 2.75 C-1.0175 3.41 -1.3475 4.07 -1.6875 4.75 C-3.33113134 5.47159424 -4.99800386 6.14351421 -6.6875 6.75 C-6.6875 5.43 -6.6875 4.11 -6.6875 2.75 C-9.1625 4.235 -9.1625 4.235 -11.6875 5.75 C-10.74910008 3.40400019 -10.09355093 2.02070062 -7.96484375 0.6015625 C-5.09576025 -0.47126804 -3.03687742 -0.30814778 0 0 Z " fill="#605EB3" transform="translate(194.6875,110.25)"/>
<path d="M0 0 C0.99 0 1.98 0 3 0 C3 0.99 3 1.98 3 3 C1.56640625 4.359375 1.56640625 4.359375 -0.4375 5.75 C-4.39235617 8.55281991 -8.16427863 11.52053636 -11.921875 14.58203125 C-13.99683055 15.99783739 -15.54518428 16.57427745 -18 17 C-18.33 16.34 -18.66 15.68 -19 15 C-18.29875 14.67128906 -17.5975 14.34257812 -16.875 14.00390625 C-10.42587992 10.77058382 -6.09628597 7.45836715 -1.65625 1.7578125 C-1.1096875 1.17773438 -0.563125 0.59765625 0 0 Z " fill="#D3D3F7" transform="translate(355,131)"/>
<path d="M0 0 C2.01822917 0.29296875 4.03645833 0.5859375 6.0546875 0.87890625 C8.08140667 1.1684297 8.08140667 1.1684297 10 0 C9.67 1.32 9.34 2.64 9 4 C10.65 4.33 12.3 4.66 14 5 C14 5.33 14 5.66 14 6 C12.41753293 6.08153933 10.83383727 6.13943557 9.25 6.1875 C7.92742187 6.23970703 7.92742187 6.23970703 6.578125 6.29296875 C3.50324903 5.94355103 2.17360146 5.17867997 0 3 C0 2.01 0 1.02 0 0 Z " fill="#6361B3" transform="translate(178,132)"/>
<path d="M0 0 C0.66 1.32 1.32 2.64 2 4 C1 5 1 5 -1.06640625 5.09765625 C-1.89011719 5.08605469 -2.71382812 5.07445313 -3.5625 5.0625 C-4.38878906 5.05347656 -5.21507813 5.04445313 -6.06640625 5.03515625 C-6.70449219 5.02355469 -7.34257813 5.01195313 -8 5 C-8.28875 5.9075 -8.5775 6.815 -8.875 7.75 C-9.76531776 10.32202908 -10.71494413 12.61346766 -12 15 C-13.32 14.67 -14.64 14.34 -16 14 C-15.67 11.36 -15.34 8.72 -15 6 C-14 9.875 -14 9.875 -14 11 C-12.15236675 9.32033341 -11.09225469 8.28515087 -10.3125 5.875 C-9 4 -9 4 -7.09765625 3.5234375 C-5.07289353 3.27434542 -3.03579477 3.1313416 -1 3 C-0.67 2.01 -0.34 1.02 0 0 Z " fill="#5C5BA4" transform="translate(113,120)"/>
<path d="M0 0 C1.98 0 3.96 0 6 0 C6 0.66 6 1.32 6 2 C7.65 2 9.3 2 11 2 C9.8125 4.4375 9.8125 4.4375 8 7 C5.3125 7.8125 5.3125 7.8125 3 8 C2.896875 7.38125 2.79375 6.7625 2.6875 6.125 C2.12474627 3.63473516 2.12474627 3.63473516 -1 2 C-0.67 1.34 -0.34 0.68 0 0 Z M4 1 C5 5 5 5 5 5 Z " fill="#5C5BB8" transform="translate(168,118)"/>
<path d="M0 0 C2.97 0.495 2.97 0.495 6 1 C6.75 3.75 6.75 3.75 7 7 C5.375 9.4375 5.375 9.4375 3 11 C-1.3 10.7 -1.3 10.7 -3 9 C-3.04092937 6.66702567 -3.04241723 4.33294775 -3 2 C-2.34 1.67 -1.68 1.34 -1 1 C-1 3.31 -1 5.62 -1 8 C0.65 8.33 2.3 8.66 4 9 C4.33397787 6.12586875 4.33397787 6.12586875 4 3 C2.11922127 1.08743288 2.11922127 1.08743288 0 0 Z " fill="#5B5AA3" transform="translate(213,97)"/>
<path d="M0 0 C0.66 0.99 1.32 1.98 2 3 C1.67 3.99 1.34 4.98 1 6 C1 5.34 1 4.68 1 4 C0.34 4 -0.32 4 -1 4 C-0.67 5.98 -0.34 7.96 0 10 C-0.99 10.66 -1.98 11.32 -3 12 C-3.99 11.01 -4.98 10.02 -6 9 C-5.34 7.35 -4.68 5.7 -4 4 C-3.34 4 -2.68 4 -2 4 C-2.33 3.01 -2.66 2.02 -3 1 C-2.01 0.67 -1.02 0.34 0 0 Z " fill="#5A57C1" transform="translate(271,110)"/>
<path d="M0 0 C0.66 0 1.32 0 2 0 C1.34 2.31 0.68 4.62 0 7 C1.32 6.67 2.64 6.34 4 6 C4 7.32 4 8.64 4 10 C2 12 2 12 -1.625 12.125 C-2.73875 12.08375 -3.8525 12.0425 -5 12 C-5.33 11.34 -5.66 10.68 -6 10 C-4.02 10 -2.04 10 0 10 C-0.185625 8.906875 -0.37125 7.81375 -0.5625 6.6875 C-1 3 -1 3 0 0 Z " fill="#5B5AAF" transform="translate(139,126)"/>
<path d="M0 0 C2.0625 1.6875 2.0625 1.6875 4 4 C3.75 6.75 3.75 6.75 3 9 C-3.75 5.375 -3.75 5.375 -6 2 C-4.68 2 -3.36 2 -2 2 C-1.34 1.34 -0.68 0.68 0 0 Z " fill="#B0AFDC" transform="translate(310,134)"/>
<path d="M0 0 C1.5 1.125 1.5 1.125 3 3 C3.6359447 8.0875576 3.6359447 8.0875576 1.83203125 10.67578125 C-0.73175787 12.5289252 -2.56245728 12.29779563 -5.6875 12.1875 C-6.68136719 12.16042969 -7.67523438 12.13335937 -8.69921875 12.10546875 C-9.45847656 12.07066406 -10.21773437 12.03585938 -11 12 C-11 11.67 -11 11.34 -11 11 C-9.72125 10.87625 -8.4425 10.7525 -7.125 10.625 C-3.65209064 10.30957601 -3.65209064 10.30957601 -1 8 C-0.01 8 0.98 8 2 8 C1.484375 7.05125 0.96875 6.1025 0.4375 5.125 C-0.036875 4.09375 -0.51125 3.0625 -1 2 C-0.67 1.34 -0.34 0.68 0 0 Z " fill="#5C5DB0" transform="translate(173,126)"/>
<path d="M0 0 C3.3 0 6.6 0 10 0 C9.67 0.66 9.34 1.32 9 2 C7.02 2 5.04 2 3 2 C3 2.66 3 3.32 3 4 C4.32 4.33 5.64 4.66 7 5 C7 5.33 7 5.66 7 6 C4.625 6.125 4.625 6.125 2 6 C1.34 5.34 0.68 4.68 0 4 C0 2.68 0 1.36 0 0 Z " fill="#6765AE" transform="translate(91,119)"/>
<path d="M0 0 C0.33 0.99 0.66 1.98 1 3 C0.02616054 4.68208635 -0.97695052 6.34738161 -2 8 C-2.70670728 10.69254991 -2.70670728 10.69254991 -3 13 C-3.99 12.67 -4.98 12.34 -6 12 C-6.99 12 -7.98 12 -9 12 C-6.03 8.04 -3.06 4.08 0 0 Z " fill="#6564B8" transform="translate(79,106)"/>
<path d="M0 0 C1.10192558 3.26199161 0.92286905 4.92458206 -0.4375 8.0625 C-1.57706918 10.72490153 -2 12.02692088 -2 15 C-2.66 15 -3.32 15 -4 15 C-4.51211281 8.59858988 -4.11888494 5.01989102 0 0 Z " fill="#A7A5CE" transform="translate(294,103)"/>
<path d="M0 0 C1.04350564 3.39139333 1 6.47130089 1 10 C1.33 10.99 1.66 11.98 2 13 C1.01 12.67 0.02 12.34 -1 12 C-1.94921875 9.71484375 -1.94921875 9.71484375 -2.6875 6.9375 C-2.93886719 6.01839844 -3.19023437 5.09929687 -3.44921875 4.15234375 C-3.63097656 3.44207031 -3.81273437 2.73179688 -4 2 C-2.68 1.34 -1.36 0.68 0 0 Z " fill="#5D5DB6" transform="translate(185,118)"/>
<path d="M0 0 C0.33 0 0.66 0 1 0 C1.48192771 5.42168675 1.48192771 5.42168675 -0.5625 7.875 C-3.80273788 9.3704944 -6.47606359 9.20330402 -10 9 C-9.34 8.67 -8.68 8.34 -8 8 C-8 7.34 -8 6.68 -8 6 C-3.25 4.875 -3.25 4.875 -1 6 C-0.67 4.02 -0.34 2.04 0 0 Z " fill="#5C58AC" transform="translate(230,129)"/>
<path d="M0 0 C2.91517292 1.07401108 4.77810176 1.77810176 7 4 C6.67 4.66 6.34 5.32 6 6 C2.9375 6.625 2.9375 6.625 0 7 C0 4.69 0 2.38 0 0 Z " fill="#5E58C3" transform="translate(207,113)"/>
<path d="M0 0 C0.99 0.33 1.98 0.66 3 1 C1.61918777 5.1424367 -0.59825558 6.32203099 -4 9 C-4.33 8.01 -4.66 7.02 -5 6 C-3.6875 3.8125 -3.6875 3.8125 -2 2 C-1.34 2 -0.68 2 0 2 C0 1.34 0 0.68 0 0 Z " fill="#5758BA" transform="translate(81,107)"/>
<path d="M0 0 C-0.66 2.31 -1.32 4.62 -2 7 C-2.66 7 -3.32 7 -4 7 C-4 6.34 -4 5.68 -4 5 C-3.34 5 -2.68 5 -2 5 C-2.33 4.01 -2.66 3.02 -3 2 C-4.32 2.33 -5.64 2.66 -7 3 C-7.33 2.01 -7.66 1.02 -8 0 C-4.71023192 -1.09658936 -3.28696233 -0.79953138 0 0 Z " fill="#5252B0" transform="translate(88,132)"/>
<path d="M0 0 C0 0.66 0 1.32 0 2 C-0.598125 2.5775 -1.19625 3.155 -1.8125 3.75 C-4.27792155 6.28586216 -5.54430427 8.7974694 -7 12 C-8 10 -8 10 -7.3125 6.5625 C-5.88272635 2.68168579 -4.44559634 0 0 0 Z " fill="#615DB2" transform="translate(224,111)"/>
<path d="M0 0 C1.15941038 3.47823115 0.70820884 5.45895578 0 9 C0.66 9 1.32 9 2 9 C2.33 9.99 2.66 10.98 3 12 C2.01 12.495 2.01 12.495 1 13 C-0.5625 12 -0.5625 12 -2 10 C-2.02154443 6.48825822 -1.57501494 3.15002988 0 0 Z " fill="#5B5BA7" transform="translate(131,123)"/>
<path d="M0 0 C0.99 0 1.98 0 3 0 C1.50521886 3.80489745 -0.69442214 5.66190835 -4 8 C-4.99 8.33 -5.98 8.66 -7 9 C-7.33 8.34 -7.66 7.68 -8 7 C-7.34 7 -6.68 7 -6 7 C-6 6.34 -6 5.68 -6 5 C-5.38125 4.9175 -4.7625 4.835 -4.125 4.75 C-1.81562433 4.18741541 -1.81562433 4.18741541 -0.75 1.9375 C-0.5025 1.298125 -0.255 0.65875 0 0 Z " fill="#5554A8" transform="translate(61,130)"/>
<path d="M0 0 C1.98 0.66 3.96 1.32 6 2 C5.34 3.32 4.68 4.64 4 6 C1.03 5.505 1.03 5.505 -2 5 C-1.34 3.35 -0.68 1.7 0 0 Z " fill="#6462BC" transform="translate(158,131)"/>
<path d="M0 0 C0 3.12900213 -0.42451317 4.37418862 -2 7 C-2.99 7.495 -2.99 7.495 -4 8 C-4.66 7.67 -5.32 7.34 -6 7 C-6 7.66 -6 8.32 -6 9 C-6.66 9 -7.32 9 -8 9 C-6.90101298 5.70303895 -6.05402613 4.95329411 -3.4375 2.8125 C-2.79683594 2.28269531 -2.15617187 1.75289062 -1.49609375 1.20703125 C-0.75552734 0.60955078 -0.75552734 0.60955078 0 0 Z " fill="#6563BB" transform="translate(61,128)"/>
<path d="M0 0 C1.98 0.495 1.98 0.495 4 1 C4 1.66 4 2.32 4 3 C3.34 3 2.68 3 2 3 C2.33 4.98 2.66 6.96 3 9 C1.68 8.01 0.36 7.02 -1 6 C-0.67 4.02 -0.34 2.04 0 0 Z " fill="#5856C5" transform="translate(190,129)"/>
<path d="M0 0 C0.33 0.99 0.66 1.98 1 3 C0.01 3.495 0.01 3.495 -1 4 C-1 5.65 -1 7.3 -1 9 C-1.99 9 -2.98 9 -4 9 C-4 8.01 -4 7.02 -4 6 C-4.31088368 4.32900023 -4.64080332 2.66128463 -5 1 C-3.35 0.67 -1.7 0.34 0 0 Z " fill="#5454B7" transform="translate(151,114)"/>
<path d="M0 0 C1.37251933 0.11271898 2.74374297 0.24222031 4.11328125 0.38671875 C4.81517578 0.44794922 5.51707031 0.50917969 6.24023438 0.57226562 C7.97007795 0.72524499 9.69816622 0.89784477 11.42578125 1.07421875 C11.42578125 1.40421875 11.42578125 1.73421875 11.42578125 2.07421875 C5.48578125 2.40421875 -0.45421875 2.73421875 -6.57421875 3.07421875 C-3.57421875 0.07421875 -3.57421875 0.07421875 0 0 Z " fill="#C7C4F2" transform="translate(324.57421875,87.92578125)"/>
<path d="M0 0 C1.32 0 2.64 0 4 0 C3.71125 0.556875 3.4225 1.11375 3.125 1.6875 C1.9586747 4.08494645 0.9660119 6.51596939 0 9 C-0.33 9 -0.66 9 -1 9 C-1.09765625 2.84765625 -1.09765625 2.84765625 -1 1 C-0.67 0.67 -0.34 0.34 0 0 Z " fill="#5F5CCB" transform="translate(238,126)"/>
<path d="M0 0 C4.55384615 -0.36923077 4.55384615 -0.36923077 6.8125 1.5 C7.204375 1.995 7.59625 2.49 8 3 C7.67 3.66 7.34 4.32 7 5 C6.01 4.67 5.02 4.34 4 4 C4 3.34 4 2.68 4 2 C3.34 2 2.68 2 2 2 C1.67 2.99 1.34 3.98 1 5 C1 4.34 1 3.68 1 3 C0.34 2.67 -0.32 2.34 -1 2 C-0.67 1.34 -0.34 0.68 0 0 Z " fill="#6B6AB2" transform="translate(205,111)"/>
<path d="M0 0 C0.99 0 1.98 0 3 0 C3 0.66 3 1.32 3 2 C3.66 2.33 4.32 2.66 5 3 C4.34 3 3.68 3 3 3 C3 3.99 3 4.98 3 6 C1.68 6.33 0.36 6.66 -1 7 C-1.04254356 5.00045254 -1.04080783 2.99958364 -1 1 C-0.67 0.67 -0.34 0.34 0 0 Z " fill="#5C58CA" transform="translate(245,104)"/>
<path d="M0 0 C1.98 0.495 1.98 0.495 4 1 C4.6875 2.8125 4.6875 2.8125 5 5 C3.5625 6.75 3.5625 6.75 2 8 C1.67 7.34 1.34 6.68 1 6 C1.66 6 2.32 6 3 6 C3 5.34 3 4.68 3 4 C1.68 3.34 0.36 2.68 -1 2 C-0.67 1.34 -0.34 0.68 0 0 Z " fill="#5052C4" transform="translate(228,118)"/>
<path d="M0 0 C0.33 0.99 0.66 1.98 1 3 C-1.31 3 -3.62 3 -6 3 C-6.33 2.01 -6.66 1.02 -7 0 C-4.3333581 -1.33332095 -2.83319697 -0.67102033 0 0 Z " fill="#6661B8" transform="translate(268,111)"/>
<path d="M0 0 C0.33 0.99 0.66 1.98 1 3 C-1.64 3.66 -4.28 4.32 -7 5 C-7 3.68 -7 2.36 -7 1 C-5.5459375 1.0309375 -5.5459375 1.0309375 -4.0625 1.0625 C-1.12534105 1.35618499 -1.12534105 1.35618499 0 0 Z " fill="#5D5AAD" transform="translate(69,119)"/>
<path d="M0 0 C2.475 0.495 2.475 0.495 5 1 C5.33 2.65 5.66 4.3 6 6 C5.01 6.495 5.01 6.495 4 7 C3.67 5.35 3.34 3.7 3 2 C2.01 1.67 1.02 1.34 0 1 C0 0.67 0 0.34 0 0 Z " fill="#6260AE" transform="translate(231,111)"/>
<path d="M0 0 C1.98 0.495 1.98 0.495 4 1 C4 1.66 4 2.32 4 3 C5.65 3.33 7.3 3.66 9 4 C7.375 4.6875 7.375 4.6875 5 5 C1.75 3.5625 1.75 3.5625 -1 2 C-0.67 1.34 -0.34 0.68 0 0 Z " fill="#B8B8E3" transform="translate(314,142)"/>
<path d="M0 0 C2.86724686 0.57344937 3.8614515 0.8614515 6 3 C4.02 3.66 2.04 4.32 0 5 C0 3.35 0 1.7 0 0 Z " fill="#6766B6" transform="translate(171,121)"/>
<path d="M0 0 C0.66 0 1.32 0 2 0 C2.33 1.65 2.66 3.3 3 5 C2.01 5.495 2.01 5.495 1 6 C0.34 6.99 -0.32 7.98 -1 9 C-0.67 6.03 -0.34 3.06 0 0 Z " fill="#6160B4" transform="translate(81,112)"/>
<path d="M0 0 C0.99 0.66 1.98 1.32 3 2 C2.38125 2.598125 1.7625 3.19625 1.125 3.8125 C-1.13676954 6.00811144 -1.13676954 6.00811144 -3 9 C-3.33 7.68 -3.66 6.36 -4 5 C-2.68 4.34 -1.36 3.68 0 3 C0 2.01 0 1.02 0 0 Z " fill="#B6B4DF" transform="translate(298,97)"/>
<path d="M0 0 C1.46726798 3.81489674 0.43336419 6.29011622 -1 10 C-1.99 9.01 -2.98 8.02 -4 7 C-2.68 4.69 -1.36 2.38 0 0 Z " fill="#5E5DB3" transform="translate(146,122)"/>
<path d="M0 0 C0.99 0 1.98 0 3 0 C2.34 1.65 1.68 3.3 1 5 C0.34 5 -0.32 5 -1 5 C-1.33 5.66 -1.66 6.32 -2 7 C-1.125 2.25 -1.125 2.25 0 0 Z " fill="#6660BF" transform="translate(134,118)"/>
<path d="" fill="#FFFFFF" transform="translate(0,0)"/>
<path d="" fill="#FFFFFF" transform="translate(0,0)"/>
<path d="" fill="#FFFFFF" transform="translate(0,0)"/>
<path d="" fill="#FFFFFF" transform="translate(0,0)"/>
<path d="" fill="#FFFFFF" transform="translate(0,0)"/>
<path d="" fill="#FFFFFF" transform="translate(0,0)"/>
<path d="" fill="#FFFFFF" transform="translate(0,0)"/>
<path d="" fill="#FFFFFF" transform="translate(0,0)"/>
<path d="" fill="#FFFFFF" transform="translate(0,0)"/>
<path d="" fill="#FFFFFF" transform="translate(0,0)"/>
<path d="" fill="#FFFFFF" transform="translate(0,0)"/>
<path d="" fill="#FFFFFF" transform="translate(0,0)"/>
<path d="" fill="#FFFFFF" transform="translate(0,0)"/>
<path d="" fill="#FFFFFF" transform="translate(0,0)"/>
<path d="" fill="#FFFFFF" transform="translate(0,0)"/>
<path d="" fill="#FFFFFF" transform="translate(0,0)"/>
<path d="" fill="#FFFFFF" transform="translate(0,0)"/>
<path d="" fill="#FFFFFF" transform="translate(0,0)"/>
<path d="" fill="#FFFFFF" transform="translate(0,0)"/>
<path d="" fill="#FFFFFF" transform="translate(0,0)"/>
<path d="" fill="#FFFFFF" transform="translate(0,0)"/>
<path d="" fill="#FFFFFF" transform="translate(0,0)"/>
<path d="" fill="#FFFFFF" transform="translate(0,0)"/>
<path d="" fill="#FFFFFF" transform="translate(0,0)"/>
<path d="" fill="#FFFFFF" transform="translate(0,0)"/>
<path d="" fill="#FFFFFF" transform="translate(0,0)"/>
<path d="" fill="#FFFFFF" transform="translate(0,0)"/>
<path d="" fill="#FFFFFF" transform="translate(0,0)"/>
<path d="" fill="#FFFFFF" transform="translate(0,0)"/>
<path d="" fill="#FFFFFF" transform="translate(0,0)"/>
<path d="" fill="#FFFFFF" transform="translate(0,0)"/>
<path d="" fill="#FFFFFF" transform="translate(0,0)"/>
<path d="" fill="#FFFFFF" transform="translate(0,0)"/>
<path d="" fill="#FFFFFF" transform="translate(0,0)"/>
<path d="" fill="#FFFFFF" transform="translate(0,0)"/>
<path d="" fill="#FFFFFF" transform="translate(0,0)"/>
<path d="" fill="#FFFFFF" transform="translate(0,0)"/>
<path d="" fill="#FFFFFF" transform="translate(0,0)"/>
<path d="" fill="#FFFFFF" transform="translate(0,0)"/>
<path d="" fill="#FFFFFF" transform="translate(0,0)"/>
<path d="" fill="#FFFFFF" transform="translate(0,0)"/>
<path d="" fill="#FFFFFF" transform="translate(0,0)"/>
<path d="" fill="#0000FF" transform="translate(0,0)"/>
<path d="" fill="#0000FF" transform="translate(0,0)"/>
<path d="" fill="#FFFFFF" transform="translate(0,0)"/>
<path d="" fill="#FFFFFF" transform="translate(0,0)"/>
<path d="" fill="#FFFFFF" transform="translate(0,0)"/>
<path d="" fill="#808080" transform="translate(0,0)"/>
<path d="" fill="#0000FF" transform="translate(0,0)"/>
<path d="" fill="#FFFFFF" transform="translate(0,0)"/>
<path d="" fill="#FFFFFF" transform="translate(0,0)"/>
<path d="" fill="#FFFFFF" transform="translate(0,0)"/>
<path d="" fill="#FFFFFF" transform="translate(0,0)"/>
<path d="" fill="#FFFFFF" transform="translate(0,0)"/>
<path d="" fill="#FFFFFF" transform="translate(0,0)"/>
<path d="" fill="#FFFFFF" transform="translate(0,0)"/>
<path d="" fill="#FFFFFF" transform="translate(0,0)"/>
<path d="" fill="#FFFFFF" transform="translate(0,0)"/>
<path d="" fill="#FFFFFF" transform="translate(0,0)"/>
<path d="" fill="#FFFFFF" transform="translate(0,0)"/>
<path d="" fill="#FFFFFF" transform="translate(0,0)"/>
<path d="" fill="#FFFFFF" transform="translate(0,0)"/>
<path d="" fill="#FFFFFF" transform="translate(0,0)"/>
<path d="" fill="#FFFFFF" transform="translate(0,0)"/>
<path d="" fill="#FFFFFF" transform="translate(0,0)"/>
<path d="" fill="#FFFFFF" transform="translate(0,0)"/>
<path d="" fill="#FFFFFF" transform="translate(0,0)"/>
<path d="" fill="#FFFFFF" transform="translate(0,0)"/>
<path d="" fill="#FFFFFF" transform="translate(0,0)"/>
<path d="" fill="#FFFFFF" transform="translate(0,0)"/>
<path d="" fill="#FFFFFF" transform="translate(0,0)"/>
<path d="" fill="#FFFFFF" transform="translate(0,0)"/>
<path d="" fill="#FFFFFF" transform="translate(0,0)"/>
<path d="" fill="#FFFFFF" transform="translate(0,0)"/>
<path d="" fill="#FFFFFF" transform="translate(0,0)"/>
<path d="" fill="#FFFFFF" transform="translate(0,0)"/>
<path d="" fill="#FFFFFF" transform="translate(0,0)"/>
<path d="" fill="#FFFFFF" transform="translate(0,0)"/>
<path d="" fill="#FFFFFF" transform="translate(0,0)"/>
<path d="" fill="#FFFFFF" transform="translate(0,0)"/>
<path d="" fill="#FFFFFF" transform="translate(0,0)"/>
<path d="" fill="#FFFFFF" transform="translate(0,0)"/>
<path d="" fill="#FFFFFF" transform="translate(0,0)"/>
<path d="" fill="#FFFFFF" transform="translate(0,0)"/>
<path d="" fill="#FFFFFF" transform="translate(0,0)"/>
<path d="" fill="#FFFFFF" transform="translate(0,0)"/>
<path d="" fill="#FFFFFF" transform="translate(0,0)"/>
<path d="" fill="#FFFFFF" transform="translate(0,0)"/>
<path d="" fill="#FFFFFF" transform="translate(0,0)"/>
</svg>
